Coordinates
version=1
nRows=17
nColumns=36
inDegrees=yes

Units are S.I. units (second, meters, Newtons, ...)
If the header above contains a line with 'inDegrees', this indicates whether rotational values are in degrees (yes) or radians (no).

endheader
time	pelvis_tilt	pelvis_list	pelvis_rotation	pelvis_tx	pelvis_ty	pelvis_tz	hip_flexion_r	hip_adduction_r	hip_rotation_r	knee_angle_r	knee_angle_r_beta	ankle_angle_r	subtalar_angle_r	mtp_angle_r	hip_flexion_l	hip_adduction_l	hip_rotation_l	knee_angle_l	knee_angle_l_beta	ankle_angle_l	subtalar_angle_l	mtp_angle_l	lumbar_extension	lumbar_bending	lumbar_rotation	arm_flex_r	arm_add_r	arm_rot_r	elbow_flex_r	pro_sup_r	arm_flex_l	arm_add_l	arm_rot_l	elbow_flex_l	pro_sup_l
      1.63750000	    -13.83496184	      0.06040185	     -0.70277131	     -1.01629908	      1.21117378	     -0.09727988	     22.47848876	      0.81094607	      4.79021461	     13.20915201	      0.23054319	      3.62191171	    -17.60578506	     -7.49999987	     24.13064773	      0.81442128	      0.93420410	     16.81116631	      0.29341020	      2.30880458	    -18.70542829	     -7.49999987	     -9.43395100	      2.05398001	      1.83993091	    -10.42268305	    -10.84286073	      0.50777088	     40.84851281	     79.78657003	     -4.56080523	    -13.45484907	     22.20561163	     37.95264862	     83.77940438
      1.64166670	    -14.01563287	      0.02593907	     -0.73624322	     -1.01963944	      1.20825814	     -0.09800567	     22.86226375	      0.82752519	      4.75849434	     13.43979752	      0.23456872	      3.44249554	    -17.84996817	     -7.49999987	     24.50737242	      0.83808325	      1.07056982	     16.94068900	      0.29567080	      2.28298700	    -18.71235173	     -7.49999987	     -9.87789530	      2.15432909	      1.93694846	    -10.65086027	    -11.08673691	      0.72231259	     41.16723472	     78.55269587	     -4.77796126	    -13.50002902	     22.16595213	     38.44503013	     82.31286981
      1.64583330	    -14.15126847	      0.03261060	     -0.77095049	     -1.01785767	      1.21344776	     -0.09769094	     23.07022272	      0.80585708	      4.66804796	     13.49911332	      0.23560397	      3.41299139	    -17.82221026	     -7.49999987	     24.68175746	      0.84770623	      1.11559638	     16.97562454	      0.29628054	      2.23897798	    -18.59952788	     -7.49999987	    -10.28778102	      2.16669581	      1.89470061	    -10.84519735	    -11.13462247	      0.74537991	     41.08586069	     78.54578854	     -4.90443450	    -13.52602977	     22.19577690	     38.39551401	     82.29560622
      1.65000000	    -14.47917666	     -0.03441152	     -0.58058674	     -1.01919589	      1.21055077	     -0.09869032	     23.64520440	      0.77095211	      4.31996929	     13.86166848	      0.24193175	      3.13447963	    -18.21080663	     -7.49999987	     25.32087269	      0.87860201	      1.40015625	     17.40889737	      0.30384258	      2.22045910	    -18.36350197	     -7.49999987	    -10.45077842	      2.27699154	      1.81902403	    -10.99606234	    -11.63362191	      2.16608362	     41.00573120	     77.58952478	     -4.71406423	    -13.72136457	     23.39920486	     38.09339390	     80.44973443
      1.65416670	    -14.60909446	     -0.07230235	     -0.56454872	     -1.02252795	      1.21384118	     -0.09935474	     23.87795846	      0.75234619	      4.18040234	     13.99203687	      0.24420711	      2.94106879	    -18.15052879	     -7.49999987	     25.61445548	      0.92287183	      1.67345117	     17.44680050	      0.30450411	      2.00474534	    -18.01316120	     -7.49999987	    -10.99128380	      2.36845525	      1.83332892	    -11.05937417	    -11.86855134	      2.21757328	     40.95160219	     77.66044579	     -4.59193917	    -13.73010319	     23.42827567	     38.10630481	     80.46249003
      1.65833330	    -14.69961331	     -0.09651342	     -0.57743478	     -1.01883671	      1.21184764	     -0.09948876	     24.01132760	      0.75259401	      4.16981903	     14.03125018	      0.24489151	      2.89837626	    -18.12975447	     -7.49999987	     25.72722289	      0.93706552	      1.85956422	     17.44788475	      0.30452304	      1.98657678	    -17.88018126	     -7.49999987	    -11.39496367	      2.39787878	      1.80116999	    -11.30972920	    -12.00707437	      2.24549270	     40.85667116	     77.68165543	     -4.72961063	    -13.75003724	     23.46047939	     38.05316329	     80.46271924
      1.66250000	    -14.76209994	     -0.16101437	     -0.51843777	     -1.02264131	      1.21397981	     -0.09879872	     24.22954666	      0.78041791	      3.97892615	     14.21674492	      0.24812901	      2.73862700	    -18.07865454	     -7.49999987	     25.94203638	      0.93084336	      2.23038272	     17.51389081	      0.30567506	      1.91636561	    -17.48324564	     -7.49999987	    -11.93073465	      2.53794704	      1.86132984	    -11.45634260	    -12.29193778	      2.39335543	     40.84271102	     77.76394919	     -4.58067218	    -13.72612929	     23.49292941	     38.11842838	     80.44390332
      1.66666670	    -14.78247885	     -0.24166429	     -0.45150327	     -1.02351546	      1.21173454	     -0.09957904	     24.39968851	      0.82508852	      3.75227334	     14.32223108	      0.24997009	      2.71770136	    -17.99189046	     -7.49999987	     26.19983212	      0.83594233	      2.22051511	     17.78422766	      0.31039333	      2.43633575	    -16.80191995	     -7.49999987	    -12.49004903	      2.65266639	      1.87902355	    -11.72991273	    -12.90636059	      3.95173503	     41.23876694	     78.17236656	     -4.52840464	    -13.91637136	     24.22457496	     38.33089725	     79.30373074
      1.67083330	    -14.79613340	     -0.25796467	     -0.39752609	     -1.02446762	      1.21404216	     -0.09910318	     24.52429673	      0.81491986	      3.53967218	     14.40495708	      0.25141393	      2.74195685	    -17.69482395	     -7.49999987	     26.35829336	      0.80342363	      2.24837448	     17.91385067	      0.31265568	      2.45884820	    -16.63096586	     -7.49999987	    -13.13336291	      2.67821701	      1.92454454	    -11.86161720	    -13.02243516	      4.12382849	     41.22237073	     77.76455502	     -4.49171599	    -13.97991154	     24.19637778	     38.44035609	     78.53906252
      1.67500000	    -14.96792814	     -0.30275970	     -0.36437053	     -1.02507299	      1.20934321	     -0.09888611	     24.88175947	      0.86656501	      3.55793002	     14.59110670	      0.25466285	      2.76875475	    -17.84248972	     -7.49999987	     26.74678095	      0.72670690	      2.30060738	     18.19630537	      0.31758544	      2.48597620	    -16.88950002	     -7.49999987	    -13.48080747	      2.69624177	      1.87875782	    -12.05003377	    -13.31552973	      4.99463528	     41.15521460	     78.12030685	     -4.66126925	    -14.19703146	     24.28581427	     38.68401522	     78.04018134
      1.67916670	    -15.07849047	     -0.34690730	     -0.34812457	     -1.02556546	      1.20823074	     -0.10005663	     25.14787100	      0.88049537	      3.46724294	     14.75148042	      0.25746190	      2.81612404	    -17.78589057	     -7.49999987	     27.08014723	      0.64890750	      2.23078531	     18.46391827	      0.32225617	      2.62996217	    -16.97370132	     -7.49999987	    -13.93549571	      2.76004753	      1.97453792	    -12.43775147	    -13.52190122	      5.24337413	     41.35726776	     77.35805962	     -4.82853798	    -14.35267274	     24.25677024	     39.07689385	     76.95767406
      1.68333330	    -15.16619591	     -0.38645044	     -0.34901108	     -1.02490850	      1.20613931	     -0.09954847	     25.42919880	      0.88718650	      3.30689117	     15.02868409	      0.26230002	      3.05177637	    -17.66703405	     -7.49999987	     27.39267298	      0.55755798	      2.22042833	     18.85858492	      0.32914440	      2.77916686	    -17.22993139	     -7.49999987	    -14.32333657	      2.78630073	      2.03976484	    -12.67352019	    -13.74531876	      5.79860321	     41.29682845	     76.10792172	     -5.12642282	    -14.47086526	     24.37708648	     39.21985902	     75.23427149
      1.68750000	    -15.50948093	     -0.42733275	     -0.21041853	     -1.02398611	      1.20607678	     -0.09812231	     25.93565796	      0.90812567	      3.35204279	     15.31874971	      0.26736262	      2.99760846	    -17.77215437	     -7.49999987	     27.98764108	      0.47152324	      2.08065753	     19.25532981	      0.33606890	      2.66325589	    -17.77086088	     -7.49999987	    -14.23679556	      2.87242958	      1.87417187	    -12.96120389	    -13.93843489	      6.94108565	     40.74497055	     76.06279446	     -5.35090473	    -14.64259769	     24.76855064	     39.08577821	     74.13247327
      1.69166670	    -15.58259495	     -0.40996128	     -0.06326711	     -1.02390864	      1.21065550	     -0.09932847	     26.00405098	      0.81566614	      3.32100911	     15.35897027	      0.26806460	      2.91668113	    -17.75133892	     -7.49999987	     28.10132251	      0.47348365	      1.87940067	     19.35469740	      0.33780320	      2.58885752	    -17.85115643	     -7.49999987	    -14.63071514	      2.91266153	      1.82230917	    -13.29559091	    -13.95609122	      6.98011124	     40.58419423	     76.07824878	     -5.57706314	    -14.66238278	     24.79376267	     39.00155134	     74.12834003
      1.69583330	    -15.65353034	     -0.45621586	      0.03960909	     -1.02313451	      1.20693573	     -0.09872857	     26.03187430	      0.83981182	      3.17505684	     15.41647057	      0.26906817	      2.79541876	    -17.78316706	     -7.49999987	     28.32306795	      0.37555199	      1.71465376	     19.78128180	      0.34524850	      1.76201961	    -19.20411229	     -7.49999987	    -14.90653150	      2.94526001	      1.72304366	    -13.26666117	    -14.12453298	      8.08193273	     39.69825979	     76.36648654	     -5.86638597	    -14.61255294	     24.53467937	     38.96011403	     73.21857512
      1.70000000	    -15.85914797	     -0.44433630	      0.09588393	     -1.02415330	      1.20762045	     -0.09734712	     26.24955236	      0.81057062	      3.06650120	     15.49258938	      0.27039669	      2.82145885	    -17.82661379	     -7.49999987	     28.58738730	      0.35812786	      1.49171568	     19.90754216	      0.34745216	      1.43056247	    -19.55324904	     -7.49999987	    -15.09562921	      2.87923203	      1.81829567	    -13.57873302	    -13.98936248	      8.25899627	     39.45776822	     75.67091889	     -6.17968108	    -14.75207086	     24.30776873	     39.14362681	     72.29271173
      1.70416670	    -16.06500453	     -0.46009087	      0.14058668	     -1.02329069	      1.20664723	     -0.09705141	     26.48933342	      0.80871454	      2.89944311	     15.58450865	      0.27200099	      2.96858871	    -17.85157883	     -7.49999987	     28.84973545	      0.31961524	      1.29348665	     19.94545778	      0.34811391	      1.34444557	    -19.59862045	     -7.49999987	    -15.18383916	      2.83591014	      1.70640340	    -13.64634752	    -13.90605439	      9.04005273	     38.63651751	     75.39098211	     -6.47514788	    -14.85154196	     24.17739742	     39.16980261	     71.32171638
